HIERARCHY
ROOT Hips
{
	OFFSET 0.000000 0.000000 0.000000
	CHANNELS 6 Xposition Yposition Zposition Zrotation Yrotation Xrotation 
	JOINT LowerBack
	{
		OFFSET 0.000000 0.000000 0.000000
		CHANNELS 3 Zrotation Yrotation Xrotation
		JOINT Spine
		{
			OFFSET 0.028270 2.035590 -0.193380
			CHANNELS 3 Zrotation Yrotation Xrotation
			JOINT Spine1
			{
				OFFSET 0.056720 2.048850 -0.042750
				CHANNELS 3 Zrotation Yrotation Xrotation
				JOINT Neck
				{
					OFFSET 0.000000 0.000000 0.000000
					CHANNELS 3 Zrotation Yrotation Xrotation
					JOINT Neck1
					{
						OFFSET -0.054170 1.746240 0.172020
						CHANNELS 3 Zrotation Yrotation Xrotation
						JOINT Head
						{
							OFFSET 0.104070 1.761360 -0.123970
							CHANNELS 3 Zrotation Yrotation Xrotation
							End Site
							{
								OFFSET 0.000000 0.000000 0.000000
							}
						}
					}
				}
				JOINT LeftShoulder
				{
					OFFSET 0.000000 0.000000 0.000000
					CHANNELS 3 Zrotation Yrotation Xrotation
					JOINT LeftArm
					{
						OFFSET 3.362410 1.200890 -0.311210
						CHANNELS 3 Zrotation Yrotation Xrotation
						JOINT LeftForeArm
						{
							OFFSET 4.983000 -0.000000 -0.000000
							CHANNELS 3 Zrotation Yrotation Xrotation
							JOINT LeftHand
							{
								OFFSET 3.483560 -0.000000 -0.000000
								CHANNELS 3 Zrotation Yrotation Xrotation
								JOINT LeftFingerBase
								{
									OFFSET 0.000000 0.000000 0.000000
									CHANNELS 3 Zrotation Yrotation Xrotation
									JOINT LeftHandIndex1
									{
										OFFSET 0.715260 -0.000000 -0.000000
										CHANNELS 3 Zrotation Yrotation Xrotation
										End Site
										{
											OFFSET 0.000000 0.000000 0.000000
										}
									}
								}
								JOINT LThumb
								{
									OFFSET 0.000000 0.000000 0.000000
									CHANNELS 3 Zrotation Yrotation Xrotation
									End Site
									{
										OFFSET 0.000000 0.000000 0.000000
									}
								}
							}
						}
					}
				}
				JOINT RightShoulder
				{
					OFFSET 0.000000 0.000000 0.000000
					CHANNELS 3 Zrotation Yrotation Xrotation
					JOINT RightArm
					{
						OFFSET -3.136600 1.374050 -0.404650
						CHANNELS 3 Zrotation Yrotation Xrotation
						JOINT RightForeArm
						{
							OFFSET -5.241900 -0.000000 -0.000000
							CHANNELS 3 Zrotation Yrotation Xrotation
							JOINT RightHand
							{
								OFFSET -3.444170 -0.000000 -0.000000
								CHANNELS 3 Zrotation Yrotation Xrotation
								JOINT RightFingerBase
								{
									OFFSET 0.000000 0.000000 0.000000
									CHANNELS 3 Zrotation Yrotation Xrotation
									JOINT RightHandIndex1
									{
										OFFSET -0.622530 -0.000000 -0.000000
										CHANNELS 3 Zrotation Yrotation Xrotation
										End Site
										{
											OFFSET 0.000000 0.000000 0.000000
										}
									}
								}
								JOINT RThumb
								{
									OFFSET 0.000000 0.000000 0.000000
									CHANNELS 3 Zrotation Yrotation Xrotation
									End Site
									{
										OFFSET 0.000000 0.000000 0.000000
									}
								}
							}
						}
					}
				}
			}
		}
	}
}
}
MOTION
Frames: 6
Frame Time: 0.008333
18.621419 16.620964 2.203180 -7.925661 -87.134536 30.599931 4.039796 -1.376812 6.602304 -0.374248 -1.361050 -1.821480 -7.763582 -1.488291 0.105388 10.273359 5.950498 5.218595 -5.140899 -0.424685 3.020718 0.000000 0.000000 0.000000 -9.870819 -9.129189 2.993831 -60.135242 -19.131433 14.224488 -3.529417 -17.942475 -0.008304 4.525151 0.082783 -0.000875 -0.083748 0.116986 0.000000 0.000000 0.000000 0.000000 0.000000 0.000000 0.000000 22.135643 1.484809 0.103178 62.552799 11.748484 1.026774 2.734025 25.655932 0.005837 1.635526 7.918588 0.112616 0.025540 -0.066862 0.000000 0.000000 0.000000 0.000000 0.000000 0.000000 0.000000 
18.483653 16.648428 2.173652 -11.369267 -86.903787 34.122991 4.439647 -1.349909 6.630937 -0.295838 -1.352580 -1.813374 -7.709883 -1.483725 0.124378 10.169050 6.168163 5.297467 -5.128276 -0.424120 3.040266 0.000000 0.000000 0.000000 -9.796715 -9.005846 2.943545 -60.550464 -18.620865 13.346874 -3.469447 -17.040515 -0.008773 4.788293 0.123972 0.000886 -0.078508 0.114672 0.000000 0.000000 0.000000 0.000000 0.000000 0.000000 0.000000 21.943006 1.658840 0.092308 62.614602 11.933707 0.602080 2.779253 24.962178 0.006034 1.643510 7.813569 0.111518 0.027633 -0.065077 0.000000 0.000000 0.000000 0.000000 0.000000 0.000000 0.000000 
18.347546 16.678416 2.141857 -13.236304 -86.615103 36.070046 4.783821 -1.345363 6.653264 -0.222678 -1.361419 -1.802771 -7.653215 -1.495329 0.148228 10.095336 6.370733 5.381549 -5.111201 -0.423423 3.061158 0.000000 0.000000 0.000000 -9.644938 -8.889479 2.891096 -60.996256 -18.139295 12.536788 -3.413168 -16.170947 -0.009150 5.006816 0.183451 0.003552 -0.073891 0.112448 -0.000000 0.000000 0.000000 0.000000 0.000000 0.000000 0.000000 21.763165 1.815963 0.074989 62.706907 12.130144 0.169472 2.821858 24.303572 0.006193 1.692564 7.665475 0.112616 0.029389 -0.063068 0.000000 0.000000 0.000000 0.000000 0.000000 0.000000 0.000000 
18.213509 16.710182 2.107738 -13.796782 -86.275418 36.709001 5.070416 -1.358791 6.665759 -0.157797 -1.384662 -1.791117 -7.594517 -1.520290 0.174108 10.055757 6.533452 5.468935 -5.091744 -0.422741 3.083146 0.000000 0.000000 0.000000 -9.409172 -8.819236 2.835755 -61.469034 -17.644930 11.780250 -3.360385 -15.366773 -0.009389 5.160431 0.260594 0.007321 -0.069882 0.110186 -0.000000 0.000000 0.000000 0.000000 0.000000 0.000000 0.000000 21.608498 1.928796 0.054580 62.815463 12.352814 -0.208190 2.861846 23.685074 0.006319 1.760835 7.492811 0.114414 0.030959 -0.060928 0.000000 0.000000 0.000000 0.000000 0.000000 0.000000 0.000000 
18.081285 16.743081 2.071897 -13.520562 -85.890737 36.513263 5.313638 -1.384339 6.664697 -0.100031 -1.418422 -1.779342 -7.535530 -1.554879 0.203857 10.049588 6.663300 5.555969 -5.069611 -0.422014 3.105348 0.000000 0.000000 0.000000 -9.117109 -8.769237 2.779437 -61.947939 -17.166041 11.144898 -3.315453 -14.634580 -0.009474 5.228837 0.367644 0.012397 -0.066784 0.107931 -0.000000 0.000000 0.000000 0.000000 0.000000 0.000000 0.000000 21.477058 2.009492 0.029952 62.932439 12.577242 -0.540156 2.898186 23.144281 0.006397 1.854113 7.295559 0.117313 0.032230 -0.058676 0.000000 0.000000 0.000000 0.000000 0.000000 0.000000 0.000000 
17.950792 16.776553 2.034877 -12.714493 -85.470403 35.790045 5.518342 -1.416690 6.649367 -0.049270 -1.458314 -1.768298 -7.477133 -1.594893 0.236689 10.075633 6.758475 5.640272 -5.045383 -0.421264 3.127206 0.000000 0.000000 0.000000 -8.786250 -8.738923 2.723055 -62.419185 -16.699977 10.655824 -3.280293 -13.991378 -0.009392 5.196871 0.510668 0.018979 -0.064662 0.105648 -0.000000 0.000000 0.000000 0.000000 0.000000 0.000000 0.000000 21.370227 2.058729 0.002214 63.047365 12.795857 -0.806079 2.930215 22.698605 0.006432 1.963995 7.087730 0.120810 0.033202 -0.056401 0.000000 0.000000 0.000000 0.000000 0.000000 0.000000 0.000000 
